<?xml version="1.0" encoding="UTF-8"?>
<svg id="Layer_1" data-name="Layer 1" xmlns="http://www.w3.org/2000/svg" viewBox="0 0 6792.75 1762">
  <path d="M6414.26,0c7.78,0,15.33,2.04,22.51,5.06,4.38,1.85,12.08.42,15.67,1.04s6.59,3.24,10.23,3.8c7.13,1.09,13.81-2.5,17.59-1.99,2.26.3,35.33,11.86,42.16,14.2,1.65.56,3.29,1.14,4.92,1.72,154.98,55.15,257.64,202.97,257.7,367.47l.48,1368.72c0,1.09-.88,1.97-1.97,1.97H0v-153.11c0-39.44,3.19-78.84,9.94-117.7.01-.07.02-.14.04-.21,32.87-181.54,151.6-289.47,328.9-327.08,172.66-36.63,346.2-67.03,517.82-100.15,62.27-12.02,123.13-23.79,186.07-35.91,451.21-86.93,903.95-174.98,1352.54-261.36,225.14-43.35,447.92-87.58,671.58-130.37,112.74-21.57,223.38-40.69,335.66-62.32,238.37-45.91,475.73-93.34,714.61-139.34,393.37-75.76,790.53-151.94,1183.28-226.65,15.92-3.03,33.77-5.74,49.78-9.87,1.68-.43,1.32-3.75,2.72-4.01,3.71-.7,8.62,2.34,13.45,2.02,21.77-1.41,57.81-13.43,80.43-17.74,239.31-45.56,479.4-91.07,717.51-136.44,60.06-11.44,120.06-24.91,180.31-35.68,3.73-.67,9.52.75,13.72-.03,18.46-3.44,37.07-6.06,55.86-6.06h.05Z" style="fill: #ffecd9;"/>
  <path d="M6785.7,324.51c1.26-1.03,3.17-.17,3.22,1.46.06,2.12.06,4.3-.16,6.04-.06.49-1.68,1.8-2.16,3.57-.34,1.22.65,2.42,1.92,2.42h2.28c1.09,0,1.97.89,1.97,1.97v5.31c0,.47-.17.92-.47,1.27h0c-.53.63-.62,1.52-.21,2.24l.43.76c.17.3.25.63.25.97v1408.66c0,.52-.21,1.02-.58,1.39l-.85.85c-.37.37-.87.58-1.39.58h-5.21c-1.09,0-1.97-.88-1.97-1.97V326.91s2.94-2.41,2.94-2.41Z" style="fill: #b6afab;"/>
  <path d="M6792.75,333.97v2.06c0,1.09-.88,1.97-1.97,1.97h-2.27c-1.27,0-2.25-1.2-1.92-2.43s1.16-2.17,1.69-2.83c.37-.47.94-.74,1.54-.74h.96c1.09,0,1.97.88,1.97,1.97Z" style="fill: #d9d2ca;"/>
  <path d="M6792.75,350l-.68-1.21c-.4-.72-.32-1.61.21-2.24l.47-.55v4Z" style="fill: #fff;"/>
  <path d="M6792.75,1760v.03c0,1.09-.88,1.97-1.97,1.97h-.03l2-2Z" style="fill: #d9d2ca;"/>
</svg>